<svg xmlns="http://www.w3.org/2000/svg" version="1.0" width="282.000000" height="233.000000" preserveAspectRatio="xMidYMid meet"><rect id="backgroundrect" width="100%" height="100%" x="0" y="0" fill="none" stroke="none"/>


<g class="currentLayer" style=""><title>Layer 1</title><g transform="translate(0,233) scale(0.10000000149011612,-0.10000000149011612) " fill="#19113d" stroke="none" id="svg_1" class="selected" fill-opacity="1">
<path d="M1048,1958.7777779102325 c-204,-109 -415,-237 -430,-263 c-16,-25 -18,-59 -18,-305 l0,-278 l28,-30 c15,-16 126,-86 247,-155 c177,-101 227,-125 258,-125 c32,0 86,27 300,152 c144,83 325,187 401,232 c112,65 146,80 177,79 c54,-3 304,-146 327,-188 c14,-24 17,-60 17,-192 c0,-148 -2,-164 -21,-189 c-11,-15 -78,-63 -150,-106 c-171,-103 -171,-103 -349,-1 c-163,92 -175,109 -175,241 c0,45 -2,82 -4,82 c-2,0 -43,-23 -90,-51 l-86,-50 l0,-103 c0,-89 3,-107 20,-129 c11,-14 120,-83 243,-154 c280,-161 266,-160 447,-53 c69,40 141,83 160,94 c19,12 57,33 83,46 c65,33 95,65 108,113 c7,26 10,130 7,288 c-3,232 -4,249 -24,276 c-20,27 -89,70 -359,224 c-147,84 -162,86 -265,26 c-279,-161 -493,-285 -605,-352 c-165,-97 -162,-97 -345,11 c-171,102 -170,100 -170,291 c0,155 12,207 53,232 c121,76 267,151 293,151 c17,0 51,-11 75,-24 c160,-85 245,-139 258,-163 c5,-10 11,-64 13,-120 l3,-102 l55,31 c30,17 72,42 93,55 l37,23 l0,99 c0,92 -2,102 -26,130 c-20,25 -331,214 -451,275 c-45,23 -63,20 -135,-18 z" id="svg_2" fill="#19113d"/>
</g></g></svg>